<mxfile host="www.draw.io" modified="2020-02-16T06:02:12.326Z" agent="Mozilla/5.0 (Windows NT 10.0; Win64; x64) AppleWebKit/537.36 (KHTML, like Gecko) Chrome/79.0.3945.117 Safari/537.36" etag="sIp3Pww-Nw_YPfG11PH1" version="12.7.0" type="github">
  <diagram id="xONLuFWCUcMhqumuRk6H" name="Page-1">
    <mxGraphModel dx="1422" dy="762" grid="1" gridSize="10" guides="1" tooltips="1" connect="1" arrows="1" fold="1" page="1" pageScale="1" pageWidth="850" pageHeight="1100" math="0" shadow="0">
      <root>
        <mxCell id="0"/>
        <mxCell id="1" parent="0"/>
        <mxCell id="xEYTJPv4NOkjH4yzPZq8-18" value="PV Asset&lt;br&gt;PV Liabilities" style="edgeStyle=orthogonalEdgeStyle;rounded=0;orthogonalLoop=1;jettySize=auto;html=1;" edge="1" parent="1" source="n47yE-so-7u2_v7jeTbu-2" target="xEYTJPv4NOkjH4yzPZq8-3">
          <mxGeometry relative="1" as="geometry"/>
        </mxCell>
        <mxCell id="n47yE-so-7u2_v7jeTbu-2" value="Economic Scenario Generator" style="rounded=0;whiteSpace=wrap;html=1;" parent="1" vertex="1">
          <mxGeometry x="200" y="300" width="120" height="60" as="geometry"/>
        </mxCell>
        <mxCell id="xEYTJPv4NOkjH4yzPZq8-17" style="edgeStyle=orthogonalEdgeStyle;rounded=0;orthogonalLoop=1;jettySize=auto;html=1;entryX=0.5;entryY=1;entryDx=0;entryDy=0;" edge="1" parent="1" source="n47yE-so-7u2_v7jeTbu-5" target="n47yE-so-7u2_v7jeTbu-2">
          <mxGeometry relative="1" as="geometry"/>
        </mxCell>
        <mxCell id="n47yE-so-7u2_v7jeTbu-5" value="Liabilities Cashflow" style="rounded=0;whiteSpace=wrap;html=1;" parent="1" vertex="1">
          <mxGeometry x="60" y="410" width="120" height="60" as="geometry"/>
        </mxCell>
        <mxCell id="xEYTJPv4NOkjH4yzPZq8-16" style="edgeStyle=orthogonalEdgeStyle;rounded=0;orthogonalLoop=1;jettySize=auto;html=1;entryX=0.5;entryY=0;entryDx=0;entryDy=0;" edge="1" parent="1" source="n47yE-so-7u2_v7jeTbu-3" target="n47yE-so-7u2_v7jeTbu-2">
          <mxGeometry relative="1" as="geometry"/>
        </mxCell>
        <mxCell id="n47yE-so-7u2_v7jeTbu-3" value="Asset Mix" style="rounded=0;whiteSpace=wrap;html=1;" parent="1" vertex="1">
          <mxGeometry x="60" y="190" width="120" height="60" as="geometry"/>
        </mxCell>
        <mxCell id="xEYTJPv4NOkjH4yzPZq8-20" value="Existing Strategy" style="edgeStyle=orthogonalEdgeStyle;rounded=0;orthogonalLoop=1;jettySize=auto;html=1;entryX=0.5;entryY=0;entryDx=0;entryDy=0;" edge="1" parent="1" source="xEYTJPv4NOkjH4yzPZq8-2" target="n47yE-so-7u2_v7jeTbu-3">
          <mxGeometry x="-0.1556" relative="1" as="geometry">
            <Array as="points">
              <mxPoint x="430" y="70"/>
              <mxPoint x="120" y="70"/>
            </Array>
            <mxPoint as="offset"/>
          </mxGeometry>
        </mxCell>
        <mxCell id="xEYTJPv4NOkjH4yzPZq8-22" value="Existing Strategy + Genetic Algrothm" style="edgeStyle=orthogonalEdgeStyle;rounded=0;orthogonalLoop=1;jettySize=auto;html=1;entryX=0.567;entryY=-0.017;entryDx=0;entryDy=0;entryPerimeter=0;exitX=0.5;exitY=1;exitDx=0;exitDy=0;" edge="1" parent="1" source="xEYTJPv4NOkjH4yzPZq8-2" target="n47yE-so-7u2_v7jeTbu-3">
          <mxGeometry x="0.0558" relative="1" as="geometry">
            <mxPoint as="offset"/>
          </mxGeometry>
        </mxCell>
        <mxCell id="xEYTJPv4NOkjH4yzPZq8-2" value="Asset Selection" style="rounded=0;whiteSpace=wrap;html=1;" vertex="1" parent="1">
          <mxGeometry x="370" y="90" width="120" height="60" as="geometry"/>
        </mxCell>
        <mxCell id="xEYTJPv4NOkjH4yzPZq8-15" style="edgeStyle=orthogonalEdgeStyle;rounded=0;orthogonalLoop=1;jettySize=auto;html=1;entryX=0;entryY=0.5;entryDx=0;entryDy=0;" edge="1" parent="1" source="xEYTJPv4NOkjH4yzPZq8-3" target="xEYTJPv4NOkjH4yzPZq8-9">
          <mxGeometry relative="1" as="geometry"/>
        </mxCell>
        <mxCell id="xEYTJPv4NOkjH4yzPZq8-3" value="Valuation Model" style="rounded=0;whiteSpace=wrap;html=1;" vertex="1" parent="1">
          <mxGeometry x="460" y="300" width="120" height="60" as="geometry"/>
        </mxCell>
        <mxCell id="xEYTJPv4NOkjH4yzPZq8-8" value="" style="edgeStyle=orthogonalEdgeStyle;rounded=0;orthogonalLoop=1;jettySize=auto;html=1;" edge="1" parent="1" target="xEYTJPv4NOkjH4yzPZq8-7">
          <mxGeometry relative="1" as="geometry">
            <mxPoint x="675" y="322" as="sourcePoint"/>
          </mxGeometry>
        </mxCell>
        <mxCell id="xEYTJPv4NOkjH4yzPZq8-19" style="edgeStyle=orthogonalEdgeStyle;rounded=0;orthogonalLoop=1;jettySize=auto;html=1;entryX=1;entryY=0.5;entryDx=0;entryDy=0;" edge="1" parent="1" source="xEYTJPv4NOkjH4yzPZq8-9" target="xEYTJPv4NOkjH4yzPZq8-2">
          <mxGeometry relative="1" as="geometry">
            <Array as="points">
              <mxPoint x="710" y="120"/>
            </Array>
          </mxGeometry>
        </mxCell>
        <mxCell id="xEYTJPv4NOkjH4yzPZq8-9" value="Profit &amp;amp; Loss" style="rounded=0;whiteSpace=wrap;html=1;" vertex="1" parent="1">
          <mxGeometry x="650" y="300" width="120" height="60" as="geometry"/>
        </mxCell>
        <mxCell id="xEYTJPv4NOkjH4yzPZq8-24" value="&lt;h1&gt;Existing Strategy&lt;/h1&gt;&lt;p&gt;Adjusting when deemed necessary to address any concerns flagged by the simulator&lt;/p&gt;" style="text;html=1;strokeColor=none;fillColor=none;spacing=5;spacingTop=-20;whiteSpace=wrap;overflow=hidden;rounded=0;" vertex="1" parent="1">
          <mxGeometry x="385" y="460" width="270" height="120" as="geometry"/>
        </mxCell>
        <mxCell id="xEYTJPv4NOkjH4yzPZq8-25" value="&lt;h1&gt;Hybrid Strategy&lt;/h1&gt;&lt;p&gt;Provide alternative suggestions on how to address the concern&lt;/p&gt;" style="text;html=1;strokeColor=none;fillColor=none;spacing=5;spacingTop=-20;whiteSpace=wrap;overflow=hidden;rounded=0;" vertex="1" parent="1">
          <mxGeometry x="385" y="600" width="190" height="120" as="geometry"/>
        </mxCell>
        <mxCell id="xEYTJPv4NOkjH4yzPZq8-26" value="&lt;h1&gt;Heading&lt;/h1&gt;&lt;p&gt;Lorem ipsum dolor sit amet, consectetur adipisicing elit, sed do eiusmod tempor incididunt ut labore et dolore magna aliqua.&lt;/p&gt;" style="text;html=1;strokeColor=none;fillColor=none;spacing=5;spacingTop=-20;whiteSpace=wrap;overflow=hidden;rounded=0;" vertex="1" parent="1">
          <mxGeometry x="60" y="500" width="190" height="120" as="geometry"/>
        </mxCell>
      </root>
    </mxGraphModel>
  </diagram>
</mxfile>
